<svg width="16" height="16" viewBox="0 0 16 16" fill="none" xmlns="http://www.w3.org/2000/svg">
<g clip-path="url(#clip0)">
<path d="M11.3587 0H4.64128C3.63934 0 2.82422 0.815125 2.82422 1.81706V14.1829C2.82422 15.1849 3.63934 16 4.64128 16H11.3587C12.3607 16 13.1758 15.1849 13.1758 14.1829V1.81706C13.1758 0.815125 12.3607 0 11.3587 0ZM11.3587 15.0625H4.64128C4.15628 15.0625 3.76172 14.6679 3.76172 14.1829V13.6H12.2383V12.8H3.76172V9.41016H12.2383V12.8V14.1829C12.2383 14.6679 11.8437 15.0625 11.3587 15.0625ZM3.76172 9.41016V1.81706C3.76172 1.33206 4.15628 0.9375 4.64128 0.9375H5.40734L5.65478 2.42831C5.69231 2.65447 5.88794 2.82031 6.11719 2.82031H9.88281C10.1121 2.82031 10.3077 2.65447 10.3452 2.42831L10.5927 0.9375H11.3587C11.8437 0.9375 12.2383 1.33206 12.2383 1.81706V9.41016H3.76172ZM9.48547 1.88281H6.51456L6.35766 0.9375H9.64234L9.48547 1.88281Z" fill="#98ACBA"/>
<path d="M9.36117 5.73739L7.06051 8.03805L6.44339 7.21521C6.28804 7.00814 5.9943 6.96611 5.78714 7.12146C5.58005 7.2768 5.53805 7.57061 5.69339 7.77771L6.63479 9.03292C6.71633 9.14164 6.84101 9.20961 6.97658 9.21924C6.9877 9.22002 6.99876 9.22042 7.00983 9.22042C7.13367 9.22042 7.25304 9.17133 7.34123 9.08311L10.024 6.4003C10.2071 6.21724 10.2071 5.92046 10.024 5.73739C9.84104 5.55433 9.5442 5.55433 9.36117 5.73739Z" fill="#98ACBA"/>
</g>
<defs>
<clipPath id="clip0">
<rect width="16" height="16" fill="white"/>
</clipPath>
</defs>
</svg>
