<svg width="16" height="17" viewBox="0 0 16 17" fill="none" xmlns="http://www.w3.org/2000/svg">
<path d="M15.8354 8.09563L14.6931 6.9533L8.40712 0.667326C8.18398 0.444225 7.82223 0.444225 7.59909 0.667326L1.31308 6.9533L0.170188 8.09623C-0.0490623 8.32325 -0.0428008 8.68501 0.184218 8.90426C0.405678 9.11815 0.756754 9.11815 0.978214 8.90426L1.14506 8.73624V15.9285C1.14506 16.2442 1.40091 16.5 1.71653 16.5H14.2885C14.6041 16.5 14.86 16.2442 14.86 15.9285V8.73624L15.0274 8.90369C15.2544 9.12294 15.6162 9.11664 15.8354 8.88966C16.0493 8.6682 16.0493 8.31709 15.8354 8.09563ZM9.71689 15.3571H6.28818V10.7855H9.71689V15.3571ZM13.717 15.3571H10.8598V10.214C10.8598 9.89842 10.6039 9.64257 10.2883 9.64257H5.71671C5.40109 9.64257 5.14525 9.89842 5.14525 10.214V15.3571H2.28799V7.59334L8.0025 1.8788L13.717 7.59334V15.3571Z" fill="#98ACBA"/>
</svg>
