<svg width="16" height="17" viewBox="0 0 16 17" fill="none" xmlns="http://www.w3.org/2000/svg">
<g clip-path="url(#clip0)">
<path d="M14.9144 3.85815C14.8617 3.72503 14.7454 3.62741 14.6052 3.59844C14.4648 3.56942 14.3196 3.61296 14.2183 3.71421L12.0248 5.90779L10.8454 5.65421L10.5919 4.47487L12.7855 2.28127C12.8867 2.18002 12.9302 2.03461 12.9012 1.89441C12.8722 1.75417 12.7746 1.63799 12.6415 1.58517C11.1355 0.987965 9.42227 1.34206 8.27688 2.48737C7.72552 3.03873 7.3469 3.73122 7.18198 4.49003C7.0409 5.13921 7.0607 5.80997 7.23798 6.44596L1.38393 12.3C1.00787 12.6761 0.800781 13.176 0.800781 13.7079C0.800781 14.2397 1.00787 14.7397 1.38395 15.1157C1.75998 15.4918 2.25996 15.6989 2.79178 15.6989C3.32357 15.6989 3.82357 15.4918 4.1996 15.1157L10.0537 9.26167C10.6897 9.43894 11.3604 9.45874 12.0096 9.31763C12.7684 9.15271 13.4609 8.77406 14.0123 8.22273C15.1576 7.07739 15.5116 5.36422 14.9144 3.85815ZM13.4107 7.62125C12.5432 8.48876 11.2345 8.78568 10.0765 8.37753C9.92211 8.32313 9.75021 8.36217 9.63442 8.47793L3.59809 14.5142C3.38271 14.7296 3.09632 14.8483 2.79172 14.8483C2.4871 14.8483 2.20076 14.7296 1.98535 14.5142C1.76997 14.2988 1.65134 14.0125 1.65134 13.7079C1.65134 13.4033 1.76997 13.1169 1.98538 12.9015L8.02168 6.86519C8.13744 6.74943 8.17648 6.5775 8.12208 6.42309C7.71396 5.26516 8.01082 3.95639 8.87834 3.08887C9.49146 2.47575 10.3104 2.14956 11.1451 2.14956C11.3202 2.14956 11.4961 2.1639 11.6708 2.19301L9.8266 4.03717C9.72451 4.13923 9.68117 4.28613 9.71151 4.42729L10.0715 6.10165C10.1067 6.26517 10.2344 6.39289 10.3979 6.42804L12.0723 6.78804C12.2135 6.81839 12.3603 6.77505 12.4624 6.67296L14.3065 4.8288C14.4743 5.83632 14.1525 6.87951 13.4107 7.62125Z" fill="#98ACBA"/>
</g>
<defs>
<clipPath id="clip0">
<rect width="14.4" height="14.4" fill="white" transform="translate(0.800781 1.2998)"/>
</clipPath>
</defs>
</svg>
