<svg width="16" height="17" viewBox="0 0 16 17" fill="none" xmlns="http://www.w3.org/2000/svg">
<g clip-path="url(#clip0)">
<path d="M15.7228 10.2291L14.849 9.72461C13.9065 9.18042 13.9056 7.81995 14.849 7.27539L15.7228 6.77087C15.9469 6.64136 16.0237 6.35474 15.8943 6.13062L14.0117 2.86951C13.8824 2.64551 13.5956 2.56848 13.3713 2.69788L12.4975 3.20239C11.5552 3.74646 10.3768 3.06726 10.3768 1.97778V0.96875C10.3768 0.709839 10.167 0.5 9.90807 0.5H6.14281C5.88402 0.5 5.67406 0.709839 5.67406 0.96875V1.97778C5.67406 3.06616 4.49682 3.74707 3.55334 3.20239L2.67956 2.69788C2.45556 2.56848 2.16869 2.64526 2.03918 2.86951L0.156607 6.13062C0.0272129 6.35474 0.103995 6.64148 0.328116 6.77087L1.2019 7.27539C2.1444 7.81958 2.14525 9.18005 1.2019 9.72461L0.328238 10.2291C0.103995 10.3586 0.0272129 10.6453 0.156607 10.8694L2.03918 14.1305C2.16845 14.3545 2.45531 14.4316 2.67956 14.3021L3.55334 13.7976C4.4956 13.2534 5.67406 13.9326 5.67406 15.0222V16.0313C5.67406 16.2902 5.8839 16.5 6.14281 16.5H9.90795C10.1669 16.5 10.3767 16.2902 10.3767 16.0313V15.0222C10.3767 13.9341 11.5539 13.2528 12.4975 13.7976L13.3713 14.3021C13.5953 14.4315 13.8822 14.3547 14.0116 14.1305L15.8943 10.8694C16.0237 10.6453 15.9469 10.3586 15.7228 10.2291ZM13.4341 13.2559L12.9663 12.9857C11.3988 12.0806 9.43932 13.2106 9.43932 15.0222V15.5625H6.61156V15.0222C6.61156 13.2122 4.65331 12.0798 3.08459 12.9857L2.61681 13.2559L1.20287 10.8066L1.67065 10.5365C3.23803 9.63159 3.23961 7.36939 1.67077 6.4635L1.20287 6.19336L2.61681 3.74414L3.08459 4.01428C4.65209 4.91943 6.61156 3.78943 6.61156 1.97778V1.4375H9.43932V1.97778C9.43932 3.78784 11.3975 4.92017 12.9663 4.01428L13.4341 3.74414L14.848 6.19336L14.3802 6.4635C12.8129 7.36841 12.8113 9.63062 14.3801 10.5365L14.848 10.8066L13.4341 13.2559Z" fill="#98ACBA"/>
<path d="M8.02515 5.21875C6.21594 5.21875 4.74414 6.69067 4.74414 8.5C4.74414 10.3093 6.21594 11.7812 8.02515 11.7812C9.83423 11.7812 11.306 10.3093 11.306 8.5C11.306 6.69067 9.83423 5.21875 8.02515 5.21875ZM8.02515 10.8438C6.73291 10.8438 5.68164 9.79236 5.68164 8.5C5.68164 7.20764 6.73291 6.15625 8.02515 6.15625C9.31726 6.15625 10.3685 7.20764 10.3685 8.5C10.3685 9.79236 9.31726 10.8438 8.02515 10.8438Z" fill="#98ACBA"/>
</g>
<defs>
<clipPath id="clip0">
<rect width="16" height="16" fill="white" transform="translate(0 0.5)"/>
</clipPath>
</defs>
</svg>
