<svg width="16" height="17" viewBox="0 0 16 17" fill="none" xmlns="http://www.w3.org/2000/svg">
<g clip-path="url(#clip0)">
<path d="M15.9904 14.1713L15.0477 7.07726C14.9031 5.98871 14.0171 5.15067 12.9425 5.04668C13.196 4.68883 13.3456 4.25247 13.3456 3.78156C13.3456 2.5714 12.3611 1.58691 11.1509 1.58691C9.94075 1.58691 8.95626 2.5714 8.95626 3.78156C8.95626 4.24761 9.10274 4.67986 9.35143 5.03564H6.64862C6.89731 4.67986 7.04379 4.24761 7.04379 3.78156C7.04379 2.5714 6.05927 1.58691 4.84914 1.58691C3.63901 1.58691 2.6545 2.5714 2.6545 3.78156C2.6545 4.25247 2.80408 4.68883 3.05753 5.04668C1.98287 5.15067 1.09699 5.98871 0.952329 7.07729L0.00957182 14.1713C-0.0320951 14.4848 0.0635287 14.801 0.271895 15.0389C0.480261 15.2768 0.781115 15.4132 1.09733 15.4132H8.00002H14.9027C15.2189 15.4132 15.5198 15.2767 15.7282 15.0389C15.9365 14.801 16.0321 14.4848 15.9904 14.1713ZM11.1509 2.52751C11.8424 2.52751 12.405 3.09009 12.405 3.78159C12.405 4.47309 11.8424 5.03567 11.1509 5.03567C10.4594 5.03567 9.89682 4.47309 9.89682 3.78159C9.89682 3.09009 10.4594 2.52751 11.1509 2.52751ZM4.84914 2.52751C5.54064 2.52751 6.10322 3.09009 6.10322 3.78159C6.10322 4.47309 5.54064 5.03567 4.84914 5.03567C4.15764 5.03567 3.59506 4.47309 3.59506 3.78159C3.59506 3.09009 4.15761 2.52751 4.84914 2.52751ZM0.979417 14.4192C0.961923 14.3992 0.9338 14.3566 0.941951 14.2952L1.88468 7.20119C1.97748 6.50286 2.57872 5.97624 3.28323 5.97624H7.52974V8.49628C7.25864 8.37925 6.96337 8.32796 6.66298 8.34724C6.2001 8.37686 5.76541 8.57799 5.43897 8.91352C5.11278 9.2488 4.92351 9.6887 4.90601 10.1521C4.88651 10.6685 5.07287 11.1576 5.43069 11.5292C5.78864 11.9009 6.26992 12.1056 6.78579 12.1056C7.04313 12.1056 7.29598 12.0532 7.52978 11.9525V14.4727H1.09733C1.03547 14.4726 0.996911 14.4391 0.979417 14.4192ZM15.0206 14.4192C15.0031 14.4392 14.9645 14.4726 14.9027 14.4726H8.47031V11.6908C8.47031 11.4072 8.31627 11.1453 8.06837 11.0072C7.82154 10.8698 7.51933 10.8765 7.27965 11.025C7.13173 11.1166 6.96095 11.165 6.78579 11.165C6.52786 11.165 6.28723 11.0626 6.10821 10.8767C5.92931 10.6909 5.83617 10.4462 5.84592 10.1876C5.86385 9.71234 6.24917 9.31627 6.72309 9.28592C6.91948 9.27322 7.11054 9.32025 7.27582 9.42152C7.51911 9.5706 7.8243 9.57696 8.07223 9.4381C8.31778 9.30056 8.47034 9.03996 8.47034 8.75792V5.97624H12.7169C13.4213 5.97624 14.0226 6.50286 14.1154 7.20119L15.0581 14.2952C15.0662 14.3565 15.0381 14.3992 15.0206 14.4192Z" fill="#98ACBA"/>
</g>
<defs>
<clipPath id="clip0">
<rect width="16" height="16" fill="white" transform="translate(0 0.5)"/>
</clipPath>
</defs>
</svg>
