<svg width="16" height="17" viewBox="0 0 16 17" fill="none" xmlns="http://www.w3.org/2000/svg">
<g clip-path="url(#clip0)">
<path d="M7.99998 0.5C3.58172 0.5 0 4.08172 0 8.49998C0 12.9183 3.58172 16.5 7.99998 16.5C12.4183 16.5 16 12.9183 16 8.49998C15.9953 4.08369 12.4163 0.504721 7.99998 0.5ZM7.99998 15.3571C4.21289 15.3571 1.14285 12.2871 1.14285 8.49998C1.14285 4.71289 4.21289 1.64285 7.99998 1.64285C11.7871 1.64285 14.8571 4.71289 14.8571 8.49998C14.853 12.2854 11.7854 15.353 7.99998 15.3571Z" fill="#98ACBA"/>
<path d="M8.57118 7.92853H7.42834C6.79716 7.92853 6.28549 7.41686 6.28549 6.78569V6.21425C6.28549 5.58308 6.79716 5.0714 7.42834 5.0714H8.57118C9.20235 5.0714 9.71403 5.58308 9.71403 6.21425C9.71403 6.52985 9.96986 6.78569 10.2855 6.78569C10.6011 6.78569 10.8569 6.52985 10.8569 6.21425C10.8569 4.95187 9.83356 3.92852 8.57118 3.92852V3.35708C8.57118 3.04148 8.31534 2.78564 7.99974 2.78564C7.68414 2.78564 7.4283 3.04148 7.4283 3.35708V3.92852C6.16593 3.92852 5.14258 4.95187 5.14258 6.21425V6.78569C5.14258 8.04806 6.16593 9.07141 7.4283 9.07141H8.57118C9.20235 9.07141 9.71403 9.58309 9.71403 10.2143V10.7857C9.71403 11.4168 9.20235 11.9285 8.57118 11.9285H7.42834C6.79716 11.9285 6.28549 11.4168 6.28549 10.7857C6.28549 10.4701 6.02965 10.2142 5.71405 10.2142C5.39845 10.2142 5.14261 10.4701 5.14261 10.7857C5.14261 12.048 6.16596 13.0714 7.42834 13.0714V13.6428C7.42834 13.9584 7.68417 14.2143 7.99977 14.2143C8.31538 14.2143 8.57118 13.9584 8.57118 13.6428V13.0714C9.83356 13.0714 10.8569 12.048 10.8569 10.7856V10.2142C10.8569 8.95188 9.83356 7.92853 8.57118 7.92853Z" fill="#98ACBA"/>
</g>
<defs>
<clipPath id="clip0">
<rect width="16" height="16" fill="white" transform="translate(0 0.5)"/>
</clipPath>
</defs>
</svg>
