<svg width="16" height="17" viewBox="0 0 16 17" fill="none" xmlns="http://www.w3.org/2000/svg">
<path d="M12.2908 1.07129H3.71248C2.98898 1.07129 2.40039 1.65988 2.40039 2.38338V14.7526C2.40039 15.1718 2.61577 15.5496 2.97655 15.7631C3.16261 15.8732 3.36833 15.9284 3.57439 15.9284C3.76786 15.9284 3.96167 15.8797 4.13967 15.7821L7.88827 13.7252C7.9593 13.6863 8.04405 13.6863 8.11508 13.7252L11.8637 15.7821C12.2312 15.9837 12.666 15.9766 13.0268 15.7631C13.3875 15.5495 13.6029 15.1717 13.6029 14.7525V2.38338C13.6029 1.65988 13.0143 1.07129 12.2908 1.07129ZM4.19198 14.6827L3.68814 14.9592C3.5818 15.0175 3.48942 14.976 3.45464 14.9554C3.41989 14.9348 3.33902 14.8738 3.33902 14.7525V2.38338C3.33902 2.17745 3.50655 2.00991 3.71248 2.00991H4.19198V14.6827ZM11.7795 14.6652L8.56655 12.9023C8.21286 12.7083 7.79048 12.7083 7.43673 12.9023L4.19198 14.6827V2.00991H11.7997L11.7795 14.6652ZM12.6643 14.7525C12.6643 14.8738 12.5834 14.9348 12.5486 14.9553C12.5139 14.9759 12.4215 15.0175 12.3152 14.9592L11.7795 14.6652L11.7997 2.00991H12.2909C12.4968 2.00991 12.6643 2.17741 12.6643 2.38338L12.6643 14.7525Z" fill="#98ACBA"/>
<path d="M2.85742 5.64258H13.1431" stroke="#98ACBA" stroke-width="1.5"/>
</svg>
