<svg width="16" height="17" viewBox="0 0 16 17" fill="none" xmlns="http://www.w3.org/2000/svg">
<path d="M14.2857 2.78566H1.71428C0.767511 2.78566 0 3.55317 0 4.49995V12.4999C0 13.4467 0.767511 14.2142 1.71428 14.2142H14.2857C15.2325 14.2142 16 13.4467 16 12.4999V4.49995C16 3.55317 15.2325 2.78566 14.2857 2.78566ZM14.8571 12.4999C14.8571 12.8155 14.6013 13.0714 14.2857 13.0714H1.71428C1.39868 13.0714 1.14285 12.8155 1.14285 12.4999V10.2142V9.07137L14.8571 9.07138L14.8571 12.4999ZM14.8571 9.07138L1.14285 9.07137V7.92853H14.8571L14.8571 9.07138ZM14.8571 6.78565H1.14285V4.49995C1.14285 4.18434 1.39868 3.92851 1.71428 3.92851H14.2857C14.6013 3.92851 14.8572 4.18434 14.8572 4.49995L14.8571 6.78565Z" fill="#98ACBA"/>
<path d="M13.1423 10.2144H10.8566C10.541 10.2144 10.2852 10.4702 10.2852 10.7858C10.2852 11.1014 10.541 11.3572 10.8566 11.3572H13.1423C13.4579 11.3572 13.7138 11.1014 13.7138 10.7858C13.7138 10.4702 13.4579 10.2144 13.1423 10.2144Z" fill="#98ACBA"/>
</svg>
