<svg width="16" height="15" viewBox="0 0 16 15" fill="none" xmlns="http://www.w3.org/2000/svg">
<path d="M1.80246 9.22656C1.37934 9.6819 1.14258 10.1913 1.14258 10.7289C1.14258 12.6649 4.21263 14.2344 7.99972 14.2344C11.7868 14.2344 14.8569 12.6649 14.8569 10.7289C14.8569 10.1913 14.6201 9.6819 14.197 9.22656" stroke="#98ACBA" stroke-width="1.5"/>
<path d="M1.80246 6.22217C1.37934 6.67751 1.14258 7.18688 1.14258 7.72452C1.14258 9.66055 4.21263 11.23 7.99972 11.23C11.7868 11.23 14.8569 9.66055 14.8569 7.72452C14.8569 7.18688 14.6201 6.67751 14.197 6.22217" stroke="#98ACBA" stroke-width="1.5"/>
<path d="M7.99972 8.22534C11.7868 8.22534 14.8569 6.65588 14.8569 4.71985C14.8569 4.18221 14.6201 3.67284 14.197 3.21749C13.714 2.69775 11.9181 1.21436 7.99972 1.21436C4.08135 1.21436 2.36238 2.61494 1.80246 3.21749C1.37934 3.67284 1.14258 4.18221 1.14258 4.71985C1.14258 6.65588 4.21263 8.22534 7.99972 8.22534Z" stroke="#98ACBA" stroke-width="1.5"/>
</svg>
