<svg width="16" height="17" viewBox="0 0 16 17" fill="none" xmlns="http://www.w3.org/2000/svg">
<g clip-path="url(#clip0)">
<path d="M15.9424 13.0578L15.0131 10.3533C15.4611 9.4376 15.6978 8.41922 15.6994 7.39456C15.7021 5.6129 15.0128 3.92831 13.7584 2.65112C12.5037 1.37368 10.8317 0.654581 9.05049 0.626362C7.20345 0.597175 5.46733 1.29974 4.16211 2.60493C2.90354 3.86346 2.20548 5.52262 2.18338 7.29563C0.942943 8.22956 0.210786 9.68566 0.213192 11.2409C0.214348 11.9688 0.378161 12.6922 0.688568 13.3464L0.0484728 15.2092C-0.0615586 15.5294 0.0188165 15.8771 0.258254 16.1165C0.426755 16.2851 0.648911 16.3748 0.877381 16.3748C0.973506 16.3748 1.07076 16.3589 1.1656 16.3263L3.02838 15.6862C3.6826 15.9966 4.40607 16.1605 5.13389 16.1616C5.13651 16.1616 5.13901 16.1616 5.14164 16.1616C6.72008 16.1615 8.18727 15.4105 9.1178 14.1397C10.0861 14.1142 11.0442 13.8798 11.9104 13.456L14.6149 14.3854C14.7276 14.4241 14.8432 14.443 14.9574 14.443C15.2289 14.443 15.4929 14.3363 15.6932 14.136C15.9777 13.8515 16.0732 13.4383 15.9424 13.0578ZM5.14158 15.2092C5.13954 15.2092 5.13739 15.2092 5.13536 15.2092C4.49117 15.2083 3.85145 15.0495 3.28548 14.75C3.1691 14.6885 3.03248 14.6778 2.90804 14.7206L0.997943 15.3769L1.65429 13.4669C1.69704 13.3424 1.68641 13.2058 1.62485 13.0894C1.32541 12.5234 1.1666 11.8837 1.1656 11.2395C1.16401 10.2033 1.5671 9.22113 2.27201 8.48569C2.50226 9.88932 3.17123 11.1828 4.20817 12.2013C5.23745 13.2122 6.53127 13.8559 7.92727 14.0664C7.19014 14.7929 6.19652 15.2092 5.14158 15.2092ZM15.0197 13.4626C14.9926 13.4897 14.9604 13.497 14.9243 13.4846L12.0291 12.4897C11.9788 12.4724 11.9265 12.4639 11.8743 12.4639C11.7975 12.4639 11.7209 12.4825 11.6517 12.5192C10.825 12.9565 9.89087 13.1884 8.95018 13.1899C8.94708 13.1899 8.94427 13.1899 8.94118 13.1899C5.7892 13.1899 3.18567 10.6294 3.13573 7.47819C3.11057 5.89115 3.71426 4.39962 4.83554 3.27834C5.95683 2.15705 7.44861 1.55358 9.03543 1.57858C12.1897 1.62861 14.7519 4.23696 14.747 7.39306C14.7455 8.33375 14.5136 9.26791 14.0763 10.0945C14.0148 10.2108 14.0042 10.3475 14.0469 10.4719L15.0418 13.3672C15.0542 13.4034 15.0467 13.4355 15.0197 13.4626Z" fill="#98ACBA"/>
<path d="M11.7789 4.85938H6.10509C5.84209 4.85938 5.62891 5.07259 5.62891 5.33556C5.62891 5.59856 5.84213 5.81175 6.10509 5.81175H11.7789C12.0419 5.81175 12.255 5.59853 12.255 5.33556C12.255 5.07259 12.0419 4.85938 11.7789 4.85938Z" fill="#98ACBA"/>
<path d="M11.7789 6.81836H6.10509C5.84209 6.81836 5.62891 7.03158 5.62891 7.29455C5.62891 7.55752 5.84213 7.77074 6.10509 7.77074H11.7789C12.0419 7.77074 12.255 7.55752 12.255 7.29455C12.255 7.03158 12.0419 6.81836 11.7789 6.81836Z" fill="#98ACBA"/>
<path d="M9.59489 8.77686H6.10509C5.84209 8.77686 5.62891 8.99007 5.62891 9.25304C5.62891 9.51604 5.84213 9.72923 6.10509 9.72923H9.59486C9.85786 9.72923 10.071 9.51601 10.071 9.25304C10.071 8.99007 9.85789 8.77686 9.59489 8.77686Z" fill="#98ACBA"/>
</g>
<defs>
<clipPath id="clip0">
<rect width="16" height="16" fill="white" transform="translate(0 0.5)"/>
</clipPath>
</defs>
</svg>
