<svg width="30" height="31" viewBox="0 0 30 31" fill="none" xmlns="http://www.w3.org/2000/svg">
<path d="M30 15.5C30 23.7843 23.2843 30.5 15 30.5C6.71573 30.5 0 23.7843 0 15.5C0 7.21573 6.71573 0.5 15 0.5C23.2843 0.5 30 7.21573 30 15.5ZM3 15.5C3 22.1274 8.37258 27.5 15 27.5C21.6274 27.5 27 22.1274 27 15.5C27 8.87258 21.6274 3.5 15 3.5C8.37258 3.5 3 8.87258 3 15.5Z" fill="#ECF0F3"/>
<path d="M30 15.5C30 23.7843 23.2843 30.5 15 30.5C6.71573 30.5 0 23.7843 0 15.5C0 7.21573 6.71573 0.5 15 0.5C23.2843 0.5 30 7.21573 30 15.5ZM3 15.5C3 22.1274 8.37258 27.5 15 27.5C21.6274 27.5 27 22.1274 27 15.5C27 8.87258 21.6274 3.5 15 3.5C8.37258 3.5 3 8.87258 3 15.5Z" fill="#00A3FF"/>
</svg>
