<svg width="30" height="31" viewBox="0 0 30 31" fill="none" xmlns="http://www.w3.org/2000/svg">
<path d="M30 15.5C30 23.7843 23.2843 30.5 15 30.5C6.71573 30.5 0 23.7843 0 15.5C0 7.21573 6.71573 0.5 15 0.5C23.2843 0.5 30 7.21573 30 15.5ZM3 15.5C3 22.1274 8.37258 27.5 15 27.5C21.6274 27.5 27 22.1274 27 15.5C27 8.87258 21.6274 3.5 15 3.5C8.37258 3.5 3 8.87258 3 15.5Z" fill="#ECF0F3"/>
<path d="M15 2C15 1.17157 15.6732 0.492229 16.4975 0.574934C18.6072 0.786607 20.654 1.44382 22.5 2.50962C24.7803 3.82614 26.6739 5.71971 27.9904 8C29.3069 10.2803 30 12.867 30 15.5C30 18.1331 29.3069 20.7197 27.9904 23C26.6739 25.2803 24.7803 27.1739 22.5 28.4904C20.2197 29.8069 17.633 30.5 15 30.5C12.3669 30.5 9.78029 29.8069 7.5 28.4904C5.65398 27.4246 4.06142 25.9806 2.82328 24.2594C2.33951 23.5869 2.59122 22.6642 3.30866 22.25C4.02609 21.8358 4.93641 22.0887 5.43684 22.7489C6.40014 24.0197 7.6103 25.09 9 25.8923C10.8242 26.9455 12.8936 27.5 15 27.5C17.1064 27.5 19.1758 26.9455 21 25.8923C22.8242 24.8391 24.3391 23.3242 25.3923 21.5C26.4455 19.6758 27 17.6064 27 15.5C27 13.3936 26.4455 11.3242 25.3923 9.5C24.3391 7.67577 22.8242 6.16092 21 5.1077C19.6103 4.30535 18.0784 3.79245 16.4961 3.59363C15.6742 3.49034 15 2.82843 15 2Z" fill="#00A3FF"/>
</svg>
