<svg width="30" height="31" viewBox="0 0 30 31" fill="none" xmlns="http://www.w3.org/2000/svg">
<path d="M30 15.5C30 23.7843 23.2843 30.5 15 30.5C6.71573 30.5 0 23.7843 0 15.5C0 7.21573 6.71573 0.5 15 0.5C23.2843 0.5 30 7.21573 30 15.5ZM3 15.5C3 22.1274 8.37258 27.5 15 27.5C21.6274 27.5 27 22.1274 27 15.5C27 8.87258 21.6274 3.5 15 3.5C8.37258 3.5 3 8.87258 3 15.5Z" fill="#ECF0F3"/>
<path d="M15 2C15 1.17157 15.6732 0.492229 16.4975 0.574934C18.6072 0.786607 20.654 1.44382 22.5 2.50962C24.7803 3.82614 26.6739 5.71971 27.9904 8C29.3069 10.2803 30 12.867 30 15.5C30 17.6316 29.5458 19.7328 28.6742 21.6656C28.3337 22.4208 27.4088 22.6642 26.6913 22.25C25.9739 21.8358 25.7378 20.921 26.0593 20.1575C26.6782 18.6878 27 17.1047 27 15.5C27 13.3936 26.4455 11.3242 25.3923 9.5C24.3391 7.67577 22.8242 6.16092 21 5.1077C19.6103 4.30535 18.0784 3.79245 16.4961 3.59363C15.6742 3.49034 15 2.82843 15 2Z" fill="#00A3FF"/>
</svg>
