<svg width="108" height="23" viewBox="0 0 108 23" fill="none" xmlns="http://www.w3.org/2000/svg">
<path d="M43.1237 12.9913H33.9062V18.9873H44.724V22.959H29.1055V0.218657H44.692V4.04345H33.9062V9.37833H43.1237V12.9913Z" fill="#00A3FF"/>
<path d="M56.1658 14.498H52.3412V22.959H47.5404V0.218657H56.1978C58.9502 0.218657 61.0733 0.896836 62.5668 2.07553C64.0604 3.25423 64.8072 4.91978 64.8072 7.07219C64.8072 8.59937 64.4605 9.87544 63.767 10.9004C63.0842 11.9151 62.0441 12.7248 60.6465 13.3295L65.6873 22.7437L65.8113 22.959H60.5345L56.1658 14.498ZM52.3412 10.762H56.2138C57.4193 10.762 58.3528 10.4699 59.0143 9.88568C59.6757 9.29121 60.0064 8.47637 60.0064 7.44117C60.0064 6.38547 59.6917 5.55525 59.0623 4.95053C58.4435 4.34581 57.4887 4.04345 56.1978 4.04345H52.3412V10.762Z" fill="#00A3FF"/>
<path d="M87.6108 12.0073C87.6108 14.211 87.2054 16.143 86.3947 17.8035C85.5839 19.4639 84.421 20.7451 82.9061 21.647C81.4019 22.549 79.6736 23 77.7213 23C75.7903 23 74.0673 22.5541 72.5524 21.6624C71.0375 20.7707 69.864 19.4998 69.0319 17.8496C68.1997 16.1892 67.7783 14.2827 67.7677 12.1303V11.0234C67.7677 8.81973 68.1784 6.88257 68.9999 5.21189C69.832 3.53097 71.0002 2.24465 72.5044 1.35294C74.0193 0.45098 75.7476 0 77.6893 0C79.6309 0 81.3538 0.45098 82.8581 1.35294C84.373 2.24465 85.5412 3.53097 86.3626 5.21189C87.1948 6.88257 87.6108 8.81461 87.6108 11.008V12.0073ZM82.7461 10.9926C82.7461 8.64549 82.3087 6.86207 81.4339 5.64237C80.559 4.42268 79.3109 3.81283 77.6893 3.81283C76.0783 3.81283 74.8355 4.41755 73.9607 5.627C73.0859 6.8262 72.6431 8.58912 72.6324 10.9158V12.0073C72.6324 14.293 73.0699 16.0662 73.9447 17.3269C74.8195 18.5875 76.0783 19.2179 77.7213 19.2179C79.3322 19.2179 80.5697 18.6132 81.4339 17.4037C82.298 16.184 82.7354 14.4109 82.7461 12.0842V10.9926Z" fill="#00A3FF"/>
<path d="M103.181 16.8195C103.181 15.9483 102.861 15.2821 102.221 14.8208C101.581 14.3494 100.429 13.8574 98.7646 13.3449C97.1004 12.8222 95.7828 12.3097 94.812 11.8075C92.1662 10.434 90.8434 8.58399 90.8434 6.25735C90.8434 5.0479 91.1954 3.9717 91.8995 3.02874C92.6143 2.07553 93.6331 1.33244 94.956 0.799464C96.2896 0.266488 97.7831 0 99.4367 0C101.101 0 102.584 0.292112 103.885 0.876336C105.187 1.45031 106.195 2.26515 106.91 3.32085C107.635 4.37656 107.998 5.57575 107.998 6.91844H103.197C103.197 5.89349 102.861 5.09915 102.189 4.53542C101.517 3.96145 100.573 3.67446 99.3567 3.67446C98.1832 3.67446 97.2711 3.91533 96.6203 4.39705C95.9695 4.86853 95.6441 5.49376 95.6441 6.27272C95.6441 7.00044 96.0229 7.61029 96.7803 8.10227C97.5484 8.59424 98.674 9.05547 100.157 9.48595C102.888 10.2752 104.878 11.254 106.126 12.4224C107.374 13.5909 107.998 15.0463 107.998 16.7888C107.998 18.7259 107.235 20.248 105.71 21.3549C104.184 22.4516 102.131 23 99.5488 23C97.7565 23 96.1242 22.6874 94.652 22.0621C93.1797 21.4267 92.0542 20.5606 91.2754 19.4639C90.5073 18.3672 90.1232 17.0962 90.1232 15.6511H94.94C94.94 18.1212 96.4763 19.3563 99.5488 19.3563C100.69 19.3563 101.581 19.1359 102.221 18.6952C102.861 18.2442 103.181 17.619 103.181 16.8195Z" fill="#00A3FF"/>
<path d="M6.82684 0.263672L12.4492 15.6586L18.0391 0.263672H24.8985V23.0001H20.0065V16.7851V6.68108L14.107 23.0001H10.759L4.95449 6.68108V16.7851V23.0001H0V0.263672H6.82684Z" fill="#00A3FF"/>
</svg>
